<?xml version="1.0" standalone="no"?>
<!DOCTYPE svg PUBLIC "-//W3C//DTD SVG 20010904//EN"
 "http://www.w3.org/TR/2001/REC-SVG-20010904/DTD/svg10.dtd">
<svg version="1.0" xmlns="http://www.w3.org/2000/svg"
 width="1024.000000pt" height="1024.000000pt" viewBox="0 0 1024.000000 1024.000000"
 preserveAspectRatio="xMidYMid meet">

<g transform="translate(0.000000,1024.000000) scale(0.100000,-0.100000)"
fill="#000000" stroke="none">
<path d="M5724 6528 l-131 -140 -7 -412 c-4 -226 -4 -439 -1 -473 7 -60 7 -62
-16 -67 -13 -3 -69 -15 -124 -27 -120 -25 -318 -91 -435 -146 -430 -200 -791
-551 -995 -968 -55 -113 -125 -265 -125 -271 0 -9 419 -3 459 7 72 16 107 51
157 158 26 53 73 138 107 189 l61 92 437 0 437 0 93 -172 c100 -185 151 -250
209 -261 18 -4 140 -7 272 -7 l239 0 -47 88 c-48 88 -376 680 -410 739 -15 26
-26 33 -50 33 -82 0 -250 -24 -358 -50 -95 -24 -140 -30 -229 -30 -62 0 -107
4 -102 9 20 17 197 81 297 106 168 43 253 55 436 62 l172 6 0 -120 c0 -107 2
-123 21 -147 15 -19 30 -26 55 -26 28 0 53 16 155 103 321 270 465 389 477
394 34 14 26 22 -397 364 -84 68 -165 132 -180 141 -34 23 -73 23 -102 -1 -22
-18 -24 -28 -27 -130 l-4 -111 -99 0 -99 0 0 605 c0 333 -3 605 -7 604 -5 0
-67 -64 -139 -141z"/>
<path d="M4755 6331 c-75 -19 -82 -27 -199 -244 -75 -138 -528 -957 -554
-1001 -9 -16 22 6 88 64 212 184 414 296 649 360 l64 17 39 74 c22 41 43 78
47 82 8 8 91 -122 91 -140 0 -4 -62 -35 -138 -67 -326 -141 -528 -257 -707
-408 -209 -176 -367 -370 -507 -623 -72 -130 -218 -411 -218 -419 0 -3 83 -6
186 -6 l185 0 15 37 c33 77 202 411 243 478 134 218 302 402 514 562 240 182
563 338 840 404 l97 24 0 372 c0 205 -3 373 -7 373 -5 0 -36 -29 -70 -64 l-63
-63 -1 -89 c-2 -167 -2 -168 -109 27 -107 196 -137 236 -183 243 -62 10 -272
14 -302 7z"/>
</g>
</svg>
